<svg width="200" height="19" viewBox="0 0 200 19" fill="none" xmlns="http://www.w3.org/2000/svg">
<path d="M23.422 15V6.194H21.406V4.57H25.326V15H23.422ZM31.0705 15.168C30.3145 15.168 29.6565 15.028 29.0965 14.748C28.5458 14.4587 28.1165 14.0713 27.8085 13.586C27.5098 13.1007 27.3605 12.5687 27.3605 11.99C27.3605 11.3087 27.5425 10.7347 27.9065 10.268C28.2705 9.792 28.7978 9.442 29.4885 9.218L29.3765 9.68C28.8818 9.52133 28.4898 9.21333 28.2005 8.756C27.9205 8.29867 27.7805 7.79467 27.7805 7.244C27.7805 6.69333 27.9205 6.20333 28.2005 5.774C28.4805 5.34467 28.8678 5.00867 29.3625 4.766C29.8572 4.52333 30.4265 4.402 31.0705 4.402C31.7052 4.402 32.2652 4.52333 32.7505 4.766C33.2452 5.00867 33.6325 5.34467 33.9125 5.774C34.2018 6.20333 34.3465 6.69333 34.3465 7.244C34.3465 7.804 34.2018 8.31267 33.9125 8.77C33.6325 9.218 33.2452 9.526 32.7505 9.694L32.6525 9.204C33.3432 9.44667 33.8705 9.806 34.2345 10.282C34.5985 10.7487 34.7805 11.3227 34.7805 12.004C34.7805 12.5827 34.6265 13.1147 34.3185 13.6C34.0198 14.076 33.5905 14.4587 33.0305 14.748C32.4798 15.028 31.8265 15.168 31.0705 15.168ZM31.0705 13.558C31.4345 13.558 31.7518 13.4927 32.0225 13.362C32.2932 13.222 32.5032 13.0307 32.6525 12.788C32.8018 12.536 32.8765 12.2513 32.8765 11.934C32.8765 11.6073 32.8018 11.3273 32.6525 11.094C32.5032 10.8513 32.2932 10.6647 32.0225 10.534C31.7518 10.394 31.4345 10.324 31.0705 10.324C30.7065 10.324 30.3892 10.394 30.1185 10.534C29.8572 10.6647 29.6518 10.8513 29.5025 11.094C29.3532 11.3273 29.2785 11.6073 29.2785 11.934C29.2785 12.2513 29.3532 12.536 29.5025 12.788C29.6518 13.0307 29.8572 13.222 30.1185 13.362C30.3892 13.4927 30.7065 13.558 31.0705 13.558ZM31.0705 8.714C31.3412 8.714 31.5792 8.65333 31.7845 8.532C31.9898 8.41067 32.1485 8.252 32.2605 8.056C32.3818 7.85067 32.4425 7.61733 32.4425 7.356C32.4425 7.09467 32.3818 6.866 32.2605 6.67C32.1485 6.46467 31.9898 6.306 31.7845 6.194C31.5792 6.07267 31.3412 6.012 31.0705 6.012C30.7998 6.012 30.5572 6.07267 30.3425 6.194C30.1372 6.306 29.9738 6.46467 29.8525 6.67C29.7405 6.866 29.6845 7.09467 29.6845 7.356C29.6845 7.61733 29.7405 7.85067 29.8525 8.056C29.9738 8.252 30.1372 8.41067 30.3425 8.532C30.5572 8.65333 30.7998 8.714 31.0705 8.714ZM36.1362 15V13.558L38.9642 10.604C39.5242 10.016 39.9535 9.54933 40.2522 9.204C40.5602 8.84933 40.7749 8.546 40.8962 8.294C41.0175 8.042 41.0782 7.78533 41.0782 7.524C41.0782 7.08533 40.9382 6.74 40.6582 6.488C40.3875 6.236 40.0375 6.11 39.6082 6.11C39.1602 6.11 38.7729 6.24067 38.4462 6.502C38.1195 6.754 37.8815 7.12733 37.7322 7.622L36.0662 7.104C36.1782 6.55333 36.4069 6.07733 36.7522 5.676C37.0975 5.26533 37.5175 4.95267 38.0122 4.738C38.5162 4.514 39.0482 4.402 39.6082 4.402C40.2802 4.402 40.8682 4.52333 41.3722 4.766C41.8855 5.00867 42.2822 5.34933 42.5622 5.788C42.8515 6.22667 42.9962 6.74 42.9962 7.328C42.9962 7.70133 42.9262 8.07 42.7862 8.434C42.6462 8.798 42.4362 9.17133 42.1562 9.554C41.8762 9.92733 41.5122 10.3473 41.0642 10.814L38.6142 13.39H43.1362V15H36.1362ZM48.2697 15.168C47.5137 15.168 46.8557 15.028 46.2957 14.748C45.745 14.4587 45.3157 14.0713 45.0077 13.586C44.709 13.1007 44.5597 12.5687 44.5597 11.99C44.5597 11.3087 44.7417 10.7347 45.1057 10.268C45.4697 9.792 45.997 9.442 46.6877 9.218L46.5757 9.68C46.081 9.52133 45.689 9.21333 45.3997 8.756C45.1197 8.29867 44.9797 7.79467 44.9797 7.244C44.9797 6.69333 45.1197 6.20333 45.3997 5.774C45.6797 5.34467 46.067 5.00867 46.5617 4.766C47.0564 4.52333 47.6257 4.402 48.2697 4.402C48.9044 4.402 49.4644 4.52333 49.9497 4.766C50.4444 5.00867 50.8317 5.34467 51.1117 5.774C51.401 6.20333 51.5457 6.69333 51.5457 7.244C51.5457 7.804 51.401 8.31267 51.1117 8.77C50.8317 9.218 50.4444 9.526 49.9497 9.694L49.8517 9.204C50.5424 9.44667 51.0697 9.806 51.4337 10.282C51.7977 10.7487 51.9797 11.3227 51.9797 12.004C51.9797 12.5827 51.8257 13.1147 51.5177 13.6C51.219 14.076 50.7897 14.4587 50.2297 14.748C49.679 15.028 49.0257 15.168 48.2697 15.168ZM48.2697 13.558C48.6337 13.558 48.951 13.4927 49.2217 13.362C49.4924 13.222 49.7024 13.0307 49.8517 12.788C50.001 12.536 50.0757 12.2513 50.0757 11.934C50.0757 11.6073 50.001 11.3273 49.8517 11.094C49.7024 10.8513 49.4924 10.6647 49.2217 10.534C48.951 10.394 48.6337 10.324 48.2697 10.324C47.9057 10.324 47.5884 10.394 47.3177 10.534C47.0564 10.6647 46.851 10.8513 46.7017 11.094C46.5524 11.3273 46.4777 11.6073 46.4777 11.934C46.4777 12.2513 46.5524 12.536 46.7017 12.788C46.851 13.0307 47.0564 13.222 47.3177 13.362C47.5884 13.4927 47.9057 13.558 48.2697 13.558ZM48.2697 8.714C48.5404 8.714 48.7784 8.65333 48.9837 8.532C49.189 8.41067 49.3477 8.252 49.4597 8.056C49.581 7.85067 49.6417 7.61733 49.6417 7.356C49.6417 7.09467 49.581 6.866 49.4597 6.67C49.3477 6.46467 49.189 6.306 48.9837 6.194C48.7784 6.07267 48.5404 6.012 48.2697 6.012C47.999 6.012 47.7564 6.07267 47.5417 6.194C47.3364 6.306 47.173 6.46467 47.0517 6.67C46.9397 6.866 46.8837 7.09467 46.8837 7.356C46.8837 7.61733 46.9397 7.85067 47.0517 8.056C47.173 8.252 47.3364 8.41067 47.5417 8.532C47.7564 8.65333 47.999 8.714 48.2697 8.714ZM55.1134 15V6.194H53.0974V4.57H57.0174V15H55.1134Z" fill="#0CBBC7"/>
<path d="M66.7777 15.168C66.059 15.168 65.429 14.986 64.8877 14.622C64.3464 14.258 63.9544 13.7633 63.7117 13.138L64.5937 12.718C64.8084 13.1753 65.107 13.5393 65.4897 13.81C65.8817 14.0807 66.311 14.216 66.7777 14.216C67.2257 14.216 67.6037 14.1087 67.9117 13.894C68.2197 13.67 68.3737 13.3807 68.3737 13.026C68.3737 12.7647 68.299 12.5593 68.1497 12.41C68.0004 12.2513 67.8277 12.13 67.6317 12.046C67.4357 11.962 67.263 11.9013 67.1137 11.864L66.0357 11.556C65.345 11.36 64.8457 11.0847 64.5377 10.73C64.2297 10.3753 64.0757 9.96467 64.0757 9.498C64.0757 9.05933 64.1877 8.67667 64.4117 8.35C64.6357 8.02333 64.939 7.77133 65.3217 7.594C65.7044 7.41667 66.129 7.328 66.5957 7.328C67.2304 7.328 67.8044 7.496 68.3177 7.832C68.8404 8.15867 69.209 8.616 69.4237 9.204L68.5277 9.624C68.341 9.204 68.0704 8.87733 67.7157 8.644C67.3704 8.40133 66.983 8.28 66.5537 8.28C66.1337 8.28 65.7977 8.38733 65.5457 8.602C65.2937 8.81667 65.1677 9.08733 65.1677 9.414C65.1677 9.666 65.233 9.86667 65.3637 10.016C65.4944 10.1653 65.6437 10.2773 65.8117 10.352C65.989 10.4267 66.143 10.4827 66.2737 10.52L67.5197 10.884C68.1264 11.0613 68.5977 11.3367 68.9337 11.71C69.279 12.0833 69.4517 12.522 69.4517 13.026C69.4517 13.4367 69.335 13.8053 69.1017 14.132C68.8777 14.4587 68.565 14.7153 68.1637 14.902C67.7624 15.0793 67.3004 15.168 66.7777 15.168ZM71.2968 15V7.496H72.3468V15H71.2968ZM71.2968 6.11V4.57H72.3468V6.11H71.2968ZM78.052 18.08C77.5386 18.08 77.0626 18.0007 76.624 17.842C76.1946 17.6833 75.8213 17.464 75.504 17.184C75.196 16.9133 74.958 16.596 74.79 16.232L75.756 15.714C75.9053 16.0687 76.1713 16.3767 76.554 16.638C76.9366 16.8993 77.4266 17.03 78.024 17.03C78.4813 17.03 78.9013 16.9413 79.284 16.764C79.6666 16.5867 79.9746 16.3253 80.208 15.98C80.4413 15.6347 80.558 15.21 80.558 14.706V13.04L80.726 13.194C80.4646 13.7353 80.0773 14.1553 79.564 14.454C79.0506 14.7433 78.4906 14.888 77.884 14.888C77.184 14.888 76.554 14.72 75.994 14.384C75.434 14.048 74.9906 13.5953 74.664 13.026C74.3466 12.4473 74.188 11.808 74.188 11.108C74.188 10.3987 74.3466 9.75933 74.664 9.19C74.9906 8.62067 75.4293 8.168 75.98 7.832C76.54 7.496 77.1746 7.328 77.884 7.328C78.4906 7.328 79.0413 7.468 79.536 7.748C80.04 8.028 80.4366 8.406 80.726 8.882L80.558 9.176V7.496H81.608V14.706C81.608 15.35 81.454 15.924 81.146 16.428C80.8473 16.9413 80.4273 17.3427 79.886 17.632C79.354 17.9307 78.7426 18.08 78.052 18.08ZM77.94 13.838C78.4253 13.838 78.864 13.7167 79.256 13.474C79.648 13.222 79.9606 12.8907 80.194 12.48C80.4366 12.06 80.558 11.6027 80.558 11.108C80.558 10.6133 80.4366 10.1607 80.194 9.75C79.9606 9.33 79.648 8.99867 79.256 8.756C78.864 8.504 78.4253 8.378 77.94 8.378C77.4453 8.378 76.9973 8.504 76.596 8.756C76.1946 8.99867 75.8773 9.32533 75.644 9.736C75.42 10.1467 75.308 10.604 75.308 11.108C75.308 11.6027 75.42 12.06 75.644 12.48C75.8773 12.8907 76.19 13.222 76.582 13.474C76.9833 13.7167 77.436 13.838 77.94 13.838ZM83.7655 15V7.496H84.8155V8.952L84.5775 8.896C84.7642 8.41067 85.0675 8.028 85.4875 7.748C85.9168 7.468 86.4115 7.328 86.9715 7.328C87.5035 7.328 87.9795 7.44933 88.3995 7.692C88.8288 7.93467 89.1648 8.27067 89.4075 8.7C89.6595 9.12 89.7855 9.596 89.7855 10.128V15H88.7355V10.534C88.7355 10.0767 88.6515 9.68933 88.4835 9.372C88.3248 9.05467 88.0962 8.812 87.7975 8.644C87.5082 8.46667 87.1722 8.378 86.7895 8.378C86.4068 8.378 86.0662 8.46667 85.7675 8.644C85.4688 8.812 85.2355 9.05933 85.0675 9.386C84.8995 9.70333 84.8155 10.086 84.8155 10.534V15H83.7655ZM95.2069 15.168C94.5069 15.168 93.8722 15 93.3029 14.664C92.7429 14.3187 92.2996 13.8473 91.9729 13.25C91.6462 12.6527 91.4829 11.976 91.4829 11.22C91.4829 10.464 91.6416 9.79667 91.9589 9.218C92.2762 8.63 92.7056 8.168 93.2469 7.832C93.7976 7.496 94.4136 7.328 95.0949 7.328C95.6362 7.328 96.1169 7.43067 96.5369 7.636C96.9662 7.832 97.3302 8.10267 97.6289 8.448C97.9276 8.784 98.1562 9.16667 98.3149 9.596C98.4736 10.016 98.5529 10.45 98.5529 10.898C98.5529 10.9913 98.5482 11.0987 98.5389 11.22C98.5296 11.332 98.5156 11.4487 98.4969 11.57H92.1549V10.59H97.8949L97.3909 11.01C97.4749 10.4967 97.4142 10.0393 97.2089 9.638C97.0129 9.22733 96.7282 8.90533 96.3549 8.672C95.9816 8.42933 95.5616 8.308 95.0949 8.308C94.6282 8.308 94.1942 8.42933 93.7929 8.672C93.4009 8.91467 93.0929 9.25533 92.8689 9.694C92.6449 10.1233 92.5562 10.6367 92.6029 11.234C92.5562 11.8313 92.6496 12.354 92.8829 12.802C93.1256 13.2407 93.4522 13.5813 93.8629 13.824C94.2829 14.0667 94.7309 14.188 95.2069 14.188C95.7576 14.188 96.2196 14.0573 96.5929 13.796C96.9662 13.5347 97.2696 13.208 97.5029 12.816L98.3989 13.292C98.2496 13.628 98.0209 13.9407 97.7129 14.23C97.4049 14.51 97.0362 14.7387 96.6069 14.916C96.1869 15.084 95.7202 15.168 95.2069 15.168ZM103.792 15.168C103.092 15.168 102.462 15 101.902 14.664C101.342 14.3187 100.899 13.852 100.572 13.264C100.255 12.6667 100.096 11.9947 100.096 11.248C100.096 10.492 100.255 9.82 100.572 9.232C100.899 8.644 101.338 8.182 101.888 7.846C102.448 7.50067 103.083 7.328 103.792 7.328C104.436 7.328 105.01 7.468 105.514 7.748C106.018 8.028 106.415 8.406 106.704 8.882L106.536 9.176V4.402H107.586V15H106.536V13.32L106.704 13.474C106.443 14.0153 106.051 14.4353 105.528 14.734C105.015 15.0233 104.436 15.168 103.792 15.168ZM103.848 14.118C104.352 14.118 104.805 13.992 105.206 13.74C105.617 13.488 105.939 13.1473 106.172 12.718C106.415 12.2793 106.536 11.7893 106.536 11.248C106.536 10.7067 106.415 10.2213 106.172 9.792C105.939 9.35333 105.617 9.008 105.206 8.756C104.805 8.504 104.352 8.378 103.848 8.378C103.354 8.378 102.906 8.504 102.504 8.756C102.103 9.008 101.786 9.34867 101.552 9.778C101.328 10.2073 101.216 10.6973 101.216 11.248C101.216 11.7893 101.328 12.2793 101.552 12.718C101.786 13.1473 102.098 13.488 102.49 13.74C102.892 13.992 103.344 14.118 103.848 14.118ZM114.781 15.168C114.258 15.168 113.782 15.0467 113.353 14.804C112.924 14.552 112.583 14.2067 112.331 13.768C112.088 13.32 111.967 12.8067 111.967 12.228V7.496H113.017V12.102C113.017 12.5033 113.096 12.858 113.255 13.166C113.423 13.4647 113.652 13.698 113.941 13.866C114.24 14.034 114.58 14.118 114.963 14.118C115.346 14.118 115.686 14.034 115.985 13.866C116.284 13.6887 116.517 13.4413 116.685 13.124C116.853 12.7973 116.937 12.41 116.937 11.962V7.496H117.987V15H116.937V13.544L117.175 13.6C116.998 14.0853 116.694 14.468 116.265 14.748C115.836 15.028 115.341 15.168 114.781 15.168ZM120.146 17.8V7.496H121.196V9.176L121.028 8.882C121.327 8.406 121.724 8.028 122.218 7.748C122.722 7.468 123.296 7.328 123.94 7.328C124.65 7.328 125.28 7.50067 125.83 7.846C126.39 8.182 126.829 8.644 127.146 9.232C127.473 9.82 127.636 10.492 127.636 11.248C127.636 11.9947 127.473 12.6667 127.146 13.264C126.829 13.852 126.39 14.3187 125.83 14.664C125.28 15 124.65 15.168 123.94 15.168C123.296 15.168 122.713 15.0233 122.19 14.734C121.677 14.4353 121.29 14.0153 121.028 13.474L121.196 13.32V17.8H120.146ZM123.884 14.118C124.388 14.118 124.836 13.992 125.228 13.74C125.63 13.488 125.942 13.1473 126.166 12.718C126.4 12.2793 126.516 11.7893 126.516 11.248C126.516 10.6973 126.4 10.2073 126.166 9.778C125.942 9.34867 125.63 9.008 125.228 8.756C124.836 8.504 124.388 8.378 123.884 8.378C123.38 8.378 122.923 8.504 122.512 8.756C122.111 9.008 121.789 9.35333 121.546 9.792C121.313 10.2213 121.196 10.7067 121.196 11.248C121.196 11.7893 121.313 12.2793 121.546 12.718C121.789 13.1473 122.111 13.488 122.512 13.74C122.923 13.992 123.38 14.118 123.884 14.118ZM131.863 15V4.402H132.913V15H131.863ZM137.232 15.168C136.756 15.168 136.332 15.0793 135.958 14.902C135.585 14.7153 135.291 14.4633 135.076 14.146C134.862 13.8287 134.754 13.4647 134.754 13.054C134.754 12.662 134.838 12.3073 135.006 11.99C135.174 11.6633 135.436 11.388 135.79 11.164C136.145 10.94 136.598 10.7813 137.148 10.688L140.088 10.198V11.15L137.4 11.598C136.859 11.6913 136.467 11.864 136.224 12.116C135.991 12.368 135.874 12.6667 135.874 13.012C135.874 13.348 136.005 13.6327 136.266 13.866C136.537 14.0993 136.882 14.216 137.302 14.216C137.816 14.216 138.264 14.1087 138.646 13.894C139.029 13.67 139.328 13.3713 139.542 12.998C139.757 12.6247 139.864 12.2093 139.864 11.752V9.848C139.864 9.4 139.701 9.036 139.374 8.756C139.048 8.476 138.623 8.336 138.1 8.336C137.643 8.336 137.242 8.45267 136.896 8.686C136.551 8.91 136.294 9.204 136.126 9.568L135.174 9.05C135.314 8.73267 135.534 8.44333 135.832 8.182C136.14 7.92067 136.49 7.71533 136.882 7.566C137.274 7.40733 137.68 7.328 138.1 7.328C138.651 7.328 139.136 7.43533 139.556 7.65C139.986 7.86467 140.317 8.16333 140.55 8.546C140.793 8.91933 140.914 9.35333 140.914 9.848V15H139.864V13.502L140.018 13.656C139.888 13.936 139.682 14.1927 139.402 14.426C139.132 14.65 138.81 14.832 138.436 14.972C138.072 15.1027 137.671 15.168 137.232 15.168ZM145.678 15.168C144.959 15.168 144.329 14.986 143.788 14.622C143.247 14.258 142.855 13.7633 142.612 13.138L143.494 12.718C143.709 13.1753 144.007 13.5393 144.39 13.81C144.782 14.0807 145.211 14.216 145.678 14.216C146.126 14.216 146.504 14.1087 146.812 13.894C147.12 13.67 147.274 13.3807 147.274 13.026C147.274 12.7647 147.199 12.5593 147.05 12.41C146.901 12.2513 146.728 12.13 146.532 12.046C146.336 11.962 146.163 11.9013 146.014 11.864L144.936 11.556C144.245 11.36 143.746 11.0847 143.438 10.73C143.13 10.3753 142.976 9.96467 142.976 9.498C142.976 9.05933 143.088 8.67667 143.312 8.35C143.536 8.02333 143.839 7.77133 144.222 7.594C144.605 7.41667 145.029 7.328 145.496 7.328C146.131 7.328 146.705 7.496 147.218 7.832C147.741 8.15867 148.109 8.616 148.324 9.204L147.428 9.624C147.241 9.204 146.971 8.87733 146.616 8.644C146.271 8.40133 145.883 8.28 145.454 8.28C145.034 8.28 144.698 8.38733 144.446 8.602C144.194 8.81667 144.068 9.08733 144.068 9.414C144.068 9.666 144.133 9.86667 144.264 10.016C144.395 10.1653 144.544 10.2773 144.712 10.352C144.889 10.4267 145.043 10.4827 145.174 10.52L146.42 10.884C147.027 11.0613 147.498 11.3367 147.834 11.71C148.179 12.0833 148.352 12.522 148.352 13.026C148.352 13.4367 148.235 13.8053 148.002 14.132C147.778 14.4587 147.465 14.7153 147.064 14.902C146.663 15.0793 146.201 15.168 145.678 15.168ZM153.067 15.084C152.395 15.084 151.877 14.888 151.513 14.496C151.149 14.104 150.967 13.544 150.967 12.816V8.546H149.581V7.496H149.931C150.248 7.496 150.5 7.39333 150.687 7.188C150.874 6.97333 150.967 6.70733 150.967 6.39V5.76H152.017V7.496H153.669V8.546H152.017V12.816C152.017 13.068 152.054 13.292 152.129 13.488C152.204 13.6747 152.33 13.824 152.507 13.936C152.694 14.048 152.941 14.104 153.249 14.104C153.324 14.104 153.412 14.0993 153.515 14.09C153.618 14.0807 153.706 14.0713 153.781 14.062V15C153.669 15.028 153.543 15.0467 153.403 15.056C153.263 15.0747 153.151 15.084 153.067 15.084ZM158.004 15V7.496H159.054V8.924L158.886 8.714C159.091 8.27533 159.394 7.93467 159.796 7.692C160.206 7.44933 160.654 7.328 161.14 7.328C161.718 7.328 162.241 7.49133 162.708 7.818C163.174 8.14467 163.506 8.56933 163.702 9.092L163.408 9.106C163.594 8.52733 163.916 8.08867 164.374 7.79C164.84 7.482 165.354 7.328 165.914 7.328C166.418 7.328 166.88 7.44933 167.3 7.692C167.729 7.93467 168.07 8.27067 168.322 8.7C168.583 9.12 168.714 9.596 168.714 10.128V15H167.664V10.534C167.664 10.0767 167.58 9.68933 167.412 9.372C167.253 9.05467 167.034 8.812 166.754 8.644C166.474 8.46667 166.152 8.378 165.788 8.378C165.433 8.378 165.111 8.46667 164.822 8.644C164.532 8.812 164.304 9.05933 164.136 9.386C163.968 9.70333 163.884 10.086 163.884 10.534V15H162.834V10.534C162.834 10.0767 162.75 9.68933 162.582 9.372C162.423 9.05467 162.204 8.812 161.924 8.644C161.644 8.46667 161.322 8.378 160.958 8.378C160.594 8.378 160.267 8.46667 159.978 8.644C159.698 8.812 159.474 9.05933 159.306 9.386C159.138 9.70333 159.054 10.086 159.054 10.534V15H158.004ZM174.233 15.168C173.523 15.168 172.879 15 172.301 14.664C171.722 14.3187 171.26 13.852 170.915 13.264C170.579 12.6667 170.411 11.99 170.411 11.234C170.411 10.4873 170.579 9.82 170.915 9.232C171.251 8.644 171.703 8.182 172.273 7.846C172.851 7.50067 173.505 7.328 174.233 7.328C174.961 7.328 175.609 7.496 176.179 7.832C176.757 8.168 177.21 8.63 177.537 9.218C177.873 9.806 178.041 10.478 178.041 11.234C178.041 11.9993 177.868 12.6807 177.523 13.278C177.177 13.866 176.715 14.328 176.137 14.664C175.567 15 174.933 15.168 174.233 15.168ZM174.233 14.118C174.737 14.118 175.189 13.992 175.591 13.74C176.001 13.488 176.323 13.1427 176.557 12.704C176.799 12.2653 176.921 11.7753 176.921 11.234C176.921 10.6927 176.799 10.2073 176.557 9.778C176.323 9.34867 176.001 9.008 175.591 8.756C175.189 8.504 174.737 8.378 174.233 8.378C173.729 8.378 173.271 8.504 172.861 8.756C172.459 9.008 172.137 9.34867 171.895 9.778C171.652 10.2073 171.531 10.6927 171.531 11.234C171.531 11.7753 171.652 12.2653 171.895 12.704C172.137 13.1427 172.459 13.488 172.861 13.74C173.271 13.992 173.729 14.118 174.233 14.118ZM179.892 15V7.496H180.942V8.952L180.704 8.896C180.891 8.41067 181.194 8.028 181.614 7.748C182.044 7.468 182.538 7.328 183.098 7.328C183.63 7.328 184.106 7.44933 184.526 7.692C184.956 7.93467 185.292 8.27067 185.534 8.7C185.786 9.12 185.912 9.596 185.912 10.128V15H184.862V10.534C184.862 10.0767 184.778 9.68933 184.61 9.372C184.452 9.05467 184.223 8.812 183.924 8.644C183.635 8.46667 183.299 8.378 182.916 8.378C182.534 8.378 182.193 8.46667 181.894 8.644C181.596 8.812 181.362 9.05933 181.194 9.386C181.026 9.70333 180.942 10.086 180.942 10.534V15H179.892ZM190.788 15.084C190.116 15.084 189.598 14.888 189.234 14.496C188.87 14.104 188.688 13.544 188.688 12.816V8.546H187.302V7.496H187.652C187.969 7.496 188.221 7.39333 188.408 7.188C188.595 6.97333 188.688 6.70733 188.688 6.39V5.76H189.738V7.496H191.39V8.546H189.738V12.816C189.738 13.068 189.775 13.292 189.85 13.488C189.925 13.6747 190.051 13.824 190.228 13.936C190.415 14.048 190.662 14.104 190.97 14.104C191.045 14.104 191.133 14.0993 191.236 14.09C191.339 14.0807 191.427 14.0713 191.502 14.062V15C191.39 15.028 191.264 15.0467 191.124 15.056C190.984 15.0747 190.872 15.084 190.788 15.084ZM193.346 15V4.402H194.396V8.952L194.158 8.896C194.344 8.41067 194.648 8.028 195.068 7.748C195.497 7.468 195.992 7.328 196.552 7.328C197.084 7.328 197.56 7.44933 197.98 7.692C198.409 7.93467 198.745 8.27067 198.988 8.7C199.24 9.12 199.366 9.596 199.366 10.128V15H198.316V10.534C198.316 10.0767 198.232 9.68933 198.064 9.372C197.896 9.05467 197.662 8.812 197.364 8.644C197.074 8.46667 196.743 8.378 196.37 8.378C195.996 8.378 195.66 8.46667 195.362 8.644C195.063 8.812 194.825 9.05933 194.648 9.386C194.48 9.70333 194.396 10.086 194.396 10.534V15H193.346Z" fill="black"/>
<path fill-rule="evenodd" clip-rule="evenodd" d="M9.85122 6L9.3032 6.59616C7.79232 8.22689 6.18105 10.0789 4.67119 11.7332L2.58566 9.8822L1.98438 9.34955L1 10.6402L1.59616 11.1729L4.23483 13.5145L4.78284 14L5.27759 13.4622C6.9493 11.6574 8.76031 9.54622 10.3992 7.77618L10.9472 7.18003L9.85122 6Z" fill="#0CBBC7" stroke="#016359" stroke-width="0.2"/>
</svg>
