<svg width="168" height="19" viewBox="0 0 168 19" fill="none" xmlns="http://www.w3.org/2000/svg">
<path d="M26.95 15.168C26.2033 15.168 25.5127 15.0327 24.878 14.762C24.2433 14.4913 23.688 14.1133 23.212 13.628C22.736 13.1427 22.3627 12.5733 22.092 11.92C21.8307 11.2667 21.7 10.5527 21.7 9.778C21.7 9.00333 21.826 8.28933 22.078 7.636C22.3393 6.97333 22.7033 6.404 23.17 5.928C23.646 5.44267 24.2013 5.06933 24.836 4.808C25.4707 4.53733 26.1613 4.402 26.908 4.402C27.6547 4.402 28.322 4.528 28.91 4.78C29.5073 5.032 30.0113 5.368 30.422 5.788C30.8327 6.19867 31.1267 6.65133 31.304 7.146L29.61 7.958C29.414 7.41667 29.0827 6.978 28.616 6.642C28.1493 6.306 27.58 6.138 26.908 6.138C26.2547 6.138 25.676 6.292 25.172 6.6C24.6773 6.908 24.29 7.33267 24.01 7.874C23.7393 8.41533 23.604 9.05 23.604 9.778C23.604 10.506 23.744 11.1453 24.024 11.696C24.3133 12.2373 24.71 12.662 25.214 12.97C25.718 13.278 26.2967 13.432 26.95 13.432C27.482 13.432 27.972 13.3293 28.42 13.124C28.868 12.9093 29.2273 12.6107 29.498 12.228C29.7687 11.836 29.904 11.374 29.904 10.842V10.044L30.772 10.8H26.908V9.19H31.808V10.24C31.808 11.0427 31.6727 11.752 31.402 12.368C31.1313 12.984 30.7627 13.502 30.296 13.922C29.8387 14.3327 29.3207 14.6453 28.742 14.86C28.1633 15.0653 27.566 15.168 26.95 15.168ZM33.3146 15V4.57H36.7166C37.818 4.57 38.7746 4.794 39.5866 5.242C40.408 5.68067 41.0426 6.292 41.4906 7.076C41.9386 7.85067 42.1626 8.75133 42.1626 9.778C42.1626 10.7953 41.9386 11.7007 41.4906 12.494C41.0426 13.278 40.408 13.894 39.5866 14.342C38.7746 14.7807 37.818 15 36.7166 15H33.3146ZM35.2186 13.32H36.7586C37.468 13.32 38.0793 13.1753 38.5926 12.886C39.1153 12.5873 39.5213 12.1767 39.8106 11.654C40.1 11.122 40.2446 10.4967 40.2446 9.778C40.2446 9.05 40.1 8.42467 39.8106 7.902C39.5213 7.37933 39.1153 6.97333 38.5926 6.684C38.0793 6.39467 37.468 6.25 36.7586 6.25H35.2186V13.32ZM43.6779 15V4.57H47.5699C48.2793 4.57 48.9046 4.70067 49.4459 4.962C49.9966 5.214 50.4259 5.58733 50.7339 6.082C51.0419 6.56733 51.1959 7.16 51.1959 7.86C51.1959 8.55067 51.0373 9.14333 50.7199 9.638C50.4119 10.1233 49.9873 10.4967 49.4459 10.758C48.9046 11.0193 48.2793 11.15 47.5699 11.15H45.5819V15H43.6779ZM45.5819 9.47H47.5979C47.9433 9.47 48.2419 9.40467 48.4939 9.274C48.7459 9.134 48.9419 8.94267 49.0819 8.7C49.2219 8.45733 49.2919 8.17733 49.2919 7.86C49.2919 7.53333 49.2219 7.25333 49.0819 7.02C48.9419 6.77733 48.7459 6.59067 48.4939 6.46C48.2419 6.32 47.9433 6.25 47.5979 6.25H45.5819V9.47ZM52.756 15V4.57H56.634C57.3434 4.57 57.9687 4.70067 58.51 4.962C59.0607 5.214 59.49 5.58733 59.798 6.082C60.106 6.56733 60.26 7.16 60.26 7.86C60.26 8.57867 60.0874 9.19 59.742 9.694C59.406 10.198 58.9487 10.5713 58.37 10.814L60.764 15H58.608L56.046 10.422L57.278 11.15H54.66V15H52.756ZM54.66 9.47H56.662C57.0074 9.47 57.306 9.40467 57.558 9.274C57.81 9.134 58.006 8.94267 58.146 8.7C58.286 8.45733 58.356 8.17733 58.356 7.86C58.356 7.53333 58.286 7.25333 58.146 7.02C58.006 6.77733 57.81 6.59067 57.558 6.46C57.306 6.32 57.0074 6.25 56.662 6.25H54.66V9.47ZM88.9236 15.168C88.177 15.168 87.4863 15.0327 86.8516 14.762C86.2263 14.4913 85.6756 14.1133 85.1996 13.628C84.733 13.1427 84.369 12.5733 84.1076 11.92C83.8463 11.2667 83.7156 10.5527 83.7156 9.778C83.7156 9.00333 83.8416 8.28933 84.0936 7.636C84.355 6.97333 84.719 6.404 85.1856 5.928C85.6616 5.44267 86.217 5.06933 86.8516 4.808C87.4863 4.53733 88.177 4.402 88.9236 4.402C89.6703 4.402 90.3376 4.528 90.9256 4.78C91.523 5.032 92.027 5.368 92.4376 5.788C92.8483 6.19867 93.1423 6.65133 93.3196 7.146L91.6116 7.944C91.4156 7.42133 91.0843 6.992 90.6176 6.656C90.151 6.31067 89.5863 6.138 88.9236 6.138C88.2703 6.138 87.6916 6.292 87.1876 6.6C86.693 6.908 86.3056 7.33267 86.0256 7.874C85.755 8.41533 85.6196 9.05 85.6196 9.778C85.6196 10.506 85.755 11.1453 86.0256 11.696C86.3056 12.2373 86.693 12.662 87.1876 12.97C87.6916 13.278 88.2703 13.432 88.9236 13.432C89.5863 13.432 90.151 13.264 90.6176 12.928C91.0843 12.5827 91.4156 12.1487 91.6116 11.626L93.3196 12.424C93.1423 12.9187 92.8483 13.376 92.4376 13.796C92.027 14.2067 91.523 14.538 90.9256 14.79C90.3376 15.042 89.6703 15.168 88.9236 15.168ZM99.7654 15.168C99.0188 15.168 98.3281 15.0327 97.6934 14.762C97.0681 14.4913 96.5174 14.1133 96.0414 13.628C95.5748 13.1427 95.2108 12.5733 94.9494 11.92C94.6881 11.2667 94.5574 10.5527 94.5574 9.778C94.5574 9.00333 94.6834 8.28933 94.9354 7.636C95.1968 6.97333 95.5608 6.404 96.0274 5.928C96.5034 5.44267 97.0588 5.06933 97.6934 4.808C98.3281 4.53733 99.0188 4.402 99.7654 4.402C100.512 4.402 101.179 4.528 101.767 4.78C102.365 5.032 102.869 5.368 103.279 5.788C103.69 6.19867 103.984 6.65133 104.161 7.146L102.453 7.944C102.257 7.42133 101.926 6.992 101.459 6.656C100.993 6.31067 100.428 6.138 99.7654 6.138C99.1121 6.138 98.5334 6.292 98.0294 6.6C97.5348 6.908 97.1474 7.33267 96.8674 7.874C96.5968 8.41533 96.4614 9.05 96.4614 9.778C96.4614 10.506 96.5968 11.1453 96.8674 11.696C97.1474 12.2373 97.5348 12.662 98.0294 12.97C98.5334 13.278 99.1121 13.432 99.7654 13.432C100.428 13.432 100.993 13.264 101.459 12.928C101.926 12.5827 102.257 12.1487 102.453 11.626L104.161 12.424C103.984 12.9187 103.69 13.376 103.279 13.796C102.869 14.2067 102.365 14.538 101.767 14.79C101.179 15.042 100.512 15.168 99.7654 15.168ZM105.707 15V4.57H109.599C110.309 4.57 110.934 4.70067 111.475 4.962C112.026 5.214 112.455 5.58733 112.763 6.082C113.071 6.56733 113.225 7.16 113.225 7.86C113.225 8.55067 113.067 9.14333 112.749 9.638C112.441 10.1233 112.017 10.4967 111.475 10.758C110.934 11.0193 110.309 11.15 109.599 11.15H107.611V15H105.707ZM107.611 9.47H109.627C109.973 9.47 110.271 9.40467 110.523 9.274C110.775 9.134 110.971 8.94267 111.111 8.7C111.251 8.45733 111.321 8.17733 111.321 7.86C111.321 7.53333 111.251 7.25333 111.111 7.02C110.971 6.77733 110.775 6.59067 110.523 6.46C110.271 6.32 109.973 6.25 109.627 6.25H107.611V9.47ZM113.097 15L116.695 4.57H119.159L122.757 15H120.685L119.943 12.76H115.911L115.155 15H113.097ZM116.457 11.08H119.397L117.661 5.886H118.193L116.457 11.08Z" fill="#0CBBC7"/>
<path d="M62.0399 11.738V10.758H66.9399V11.738H62.0399ZM74.0515 15.168C73.4915 15.168 72.9921 15.0607 72.5535 14.846C72.1148 14.6313 71.7695 14.328 71.5175 13.936C71.2655 13.544 71.1395 13.0867 71.1395 12.564C71.1395 12.116 71.2235 11.7193 71.3915 11.374C71.5595 11.0287 71.7648 10.73 72.0075 10.478C72.2595 10.2167 72.5115 9.99733 72.7635 9.82C73.0248 9.64267 73.2441 9.498 73.4215 9.386L74.1495 8.938C74.4108 8.77933 74.6675 8.602 74.9195 8.406C75.1808 8.20067 75.3955 7.96733 75.5635 7.706C75.7408 7.43533 75.8295 7.13667 75.8295 6.81C75.8295 6.418 75.6988 6.09133 75.4375 5.83C75.1761 5.56867 74.8495 5.438 74.4575 5.438C74.0561 5.438 73.7248 5.56867 73.4635 5.83C73.2115 6.09133 73.0855 6.42267 73.0855 6.824C73.0855 7.08533 73.1461 7.342 73.2675 7.594C73.3981 7.846 73.5568 8.08867 73.7435 8.322C73.9395 8.546 74.1401 8.76533 74.3455 8.98L80.0855 15H78.5875L73.4635 9.708C73.2395 9.47467 73.0108 9.218 72.7775 8.938C72.5535 8.64867 72.3621 8.336 72.2035 8C72.0448 7.65467 71.9655 7.27667 71.9655 6.866C71.9655 6.38067 72.0775 5.956 72.3015 5.592C72.5255 5.21867 72.8241 4.92933 73.1975 4.724C73.5801 4.50933 74.0001 4.402 74.4575 4.402C74.9055 4.402 75.3161 4.50467 75.6895 4.71C76.0628 4.91533 76.3615 5.2 76.5855 5.564C76.8095 5.928 76.9215 6.34333 76.9215 6.81C76.9215 7.30467 76.8048 7.73867 76.5715 8.112C76.3475 8.476 76.0721 8.78867 75.7455 9.05C75.4188 9.31133 75.1155 9.53067 74.8355 9.708L74.1355 10.142C73.8835 10.3007 73.6175 10.492 73.3375 10.716C73.0575 10.9307 72.8195 11.1873 72.6235 11.486C72.4275 11.7753 72.3295 12.1253 72.3295 12.536C72.3295 13.04 72.4928 13.432 72.8195 13.712C73.1461 13.992 73.5661 14.132 74.0795 14.132C74.4155 14.132 74.7141 14.076 74.9755 13.964C75.2368 13.852 75.4701 13.7073 75.6755 13.53C75.8808 13.3433 76.0675 13.138 76.2355 12.914C76.4035 12.6807 76.5621 12.452 76.7115 12.228L78.3215 9.834H79.5955L77.7195 12.69C77.5701 12.9233 77.3881 13.1847 77.1735 13.474C76.9588 13.754 76.7068 14.0247 76.4175 14.286C76.1281 14.538 75.7875 14.748 75.3955 14.916C75.0128 15.084 74.5648 15.168 74.0515 15.168ZM123.946 11.738V10.758H128.846V11.738H123.946ZM130.961 15V7.496H132.011V8.728L131.871 8.546C132.048 8.19133 132.314 7.91133 132.669 7.706C133.033 7.50067 133.471 7.398 133.985 7.398H134.461V8.448H133.803C133.261 8.448 132.827 8.616 132.501 8.952C132.174 9.288 132.011 9.764 132.011 10.38V15H130.961ZM139.107 15.168C138.407 15.168 137.773 15 137.203 14.664C136.643 14.3187 136.2 13.8473 135.873 13.25C135.547 12.6527 135.383 11.976 135.383 11.22C135.383 10.464 135.542 9.79667 135.859 9.218C136.177 8.63 136.606 8.168 137.147 7.832C137.698 7.496 138.314 7.328 138.995 7.328C139.537 7.328 140.017 7.43067 140.437 7.636C140.867 7.832 141.231 8.10267 141.529 8.448C141.828 8.784 142.057 9.16667 142.215 9.596C142.374 10.016 142.453 10.45 142.453 10.898C142.453 10.9913 142.449 11.0987 142.439 11.22C142.43 11.332 142.416 11.4487 142.397 11.57H136.055V10.59H141.795L141.291 11.01C141.375 10.4967 141.315 10.0393 141.109 9.638C140.913 9.22733 140.629 8.90533 140.255 8.672C139.882 8.42933 139.462 8.308 138.995 8.308C138.529 8.308 138.095 8.42933 137.693 8.672C137.301 8.91467 136.993 9.25533 136.769 9.694C136.545 10.1233 136.457 10.6367 136.503 11.234C136.457 11.8313 136.55 12.354 136.783 12.802C137.026 13.2407 137.353 13.5813 137.763 13.824C138.183 14.0667 138.631 14.188 139.107 14.188C139.658 14.188 140.12 14.0573 140.493 13.796C140.867 13.5347 141.17 13.208 141.403 12.816L142.299 13.292C142.15 13.628 141.921 13.9407 141.613 14.23C141.305 14.51 140.937 14.7387 140.507 14.916C140.087 15.084 139.621 15.168 139.107 15.168ZM146.338 15.168C145.862 15.168 145.437 15.0793 145.064 14.902C144.691 14.7153 144.397 14.4633 144.182 14.146C143.967 13.8287 143.86 13.4647 143.86 13.054C143.86 12.662 143.944 12.3073 144.112 11.99C144.28 11.6633 144.541 11.388 144.896 11.164C145.251 10.94 145.703 10.7813 146.254 10.688L149.194 10.198V11.15L146.506 11.598C145.965 11.6913 145.573 11.864 145.33 12.116C145.097 12.368 144.98 12.6667 144.98 13.012C144.98 13.348 145.111 13.6327 145.372 13.866C145.643 14.0993 145.988 14.216 146.408 14.216C146.921 14.216 147.369 14.1087 147.752 13.894C148.135 13.67 148.433 13.3713 148.648 12.998C148.863 12.6247 148.97 12.2093 148.97 11.752V9.848C148.97 9.4 148.807 9.036 148.48 8.756C148.153 8.476 147.729 8.336 147.206 8.336C146.749 8.336 146.347 8.45267 146.002 8.686C145.657 8.91 145.4 9.204 145.232 9.568L144.28 9.05C144.42 8.73267 144.639 8.44333 144.938 8.182C145.246 7.92067 145.596 7.71533 145.988 7.566C146.38 7.40733 146.786 7.328 147.206 7.328C147.757 7.328 148.242 7.43533 148.662 7.65C149.091 7.86467 149.423 8.16333 149.656 8.546C149.899 8.91933 150.02 9.35333 150.02 9.848V15H148.97V13.502L149.124 13.656C148.993 13.936 148.788 14.1927 148.508 14.426C148.237 14.65 147.915 14.832 147.542 14.972C147.178 15.1027 146.777 15.168 146.338 15.168ZM155.568 15.168C154.868 15.168 154.238 15 153.678 14.664C153.118 14.3187 152.674 13.852 152.348 13.264C152.03 12.6667 151.872 11.9947 151.872 11.248C151.872 10.492 152.03 9.82 152.348 9.232C152.674 8.644 153.113 8.182 153.664 7.846C154.224 7.50067 154.858 7.328 155.568 7.328C156.212 7.328 156.786 7.468 157.29 7.748C157.794 8.028 158.19 8.406 158.48 8.882L158.312 9.176V4.402H159.362V15H158.312V13.32L158.48 13.474C158.218 14.0153 157.826 14.4353 157.304 14.734C156.79 15.0233 156.212 15.168 155.568 15.168ZM155.624 14.118C156.128 14.118 156.58 13.992 156.982 13.74C157.392 13.488 157.714 13.1473 157.948 12.718C158.19 12.2793 158.312 11.7893 158.312 11.248C158.312 10.7067 158.19 10.2213 157.948 9.792C157.714 9.35333 157.392 9.008 156.982 8.756C156.58 8.504 156.128 8.378 155.624 8.378C155.129 8.378 154.681 8.504 154.28 8.756C153.878 9.008 153.561 9.34867 153.328 9.778C153.104 10.2073 152.992 10.6973 152.992 11.248C152.992 11.7893 153.104 12.2793 153.328 12.718C153.561 13.1473 153.874 13.488 154.266 13.74C154.667 13.992 155.12 14.118 155.624 14.118ZM161.671 18.08C161.522 18.08 161.368 18.066 161.209 18.038C161.06 18.0193 160.911 17.982 160.761 17.926V16.946C160.855 16.9553 160.971 16.9693 161.111 16.988C161.261 17.016 161.41 17.03 161.559 17.03C162.017 17.03 162.367 16.932 162.609 16.736C162.852 16.5493 163.09 16.1853 163.323 15.644L163.799 14.524L163.771 15.448L160.593 7.496H161.727L164.331 14.062H164.037L166.627 7.496H167.789L164.359 15.952C164.21 16.316 164.019 16.6613 163.785 16.988C163.561 17.3147 163.277 17.576 162.931 17.772C162.586 17.9773 162.166 18.08 161.671 18.08Z" fill="black"/>
<path fill-rule="evenodd" clip-rule="evenodd" d="M9.85122 6L9.3032 6.59616C7.79232 8.22689 6.18105 10.0789 4.67119 11.7332L2.58566 9.8822L1.98438 9.34955L1 10.6402L1.59616 11.1729L4.23483 13.5145L4.78284 14L5.27759 13.4622C6.9493 11.6574 8.76031 9.54622 10.3992 7.77618L10.9472 7.18003L9.85122 6Z" fill="#0CBBC7" stroke="#016359" stroke-width="0.2"/>
</svg>
