<svg width="160" height="19" viewBox="0 0 160 19" fill="none" xmlns="http://www.w3.org/2000/svg">
<path d="M22.008 15V4.57H23.912V13.32H28.378V15H22.008ZM33.0676 15.168C32.2836 15.168 31.5976 14.9907 31.0096 14.636C30.4216 14.2813 29.9642 13.8007 29.6376 13.194C29.3109 12.5873 29.1476 11.9153 29.1476 11.178C29.1476 10.4127 29.3109 9.736 29.6376 9.148C29.9736 8.55067 30.4262 8.07933 30.9956 7.734C31.5742 7.38867 32.2182 7.216 32.9276 7.216C33.5249 7.216 34.0476 7.314 34.4956 7.51C34.9529 7.706 35.3402 7.97667 35.6576 8.322C35.9749 8.66733 36.2176 9.064 36.3856 9.512C36.5536 9.95067 36.6376 10.4267 36.6376 10.94C36.6376 11.0707 36.6282 11.206 36.6096 11.346C36.6002 11.486 36.5769 11.6073 36.5396 11.71H30.6596V10.31H35.5036L34.6356 10.968C34.7196 10.5387 34.6962 10.156 34.5656 9.82C34.4442 9.484 34.2389 9.218 33.9496 9.022C33.6696 8.826 33.3289 8.728 32.9276 8.728C32.5449 8.728 32.2042 8.826 31.9056 9.022C31.6069 9.20867 31.3782 9.48867 31.2196 9.862C31.0702 10.226 31.0142 10.6693 31.0516 11.192C31.0142 11.6587 31.0749 12.074 31.2336 12.438C31.4016 12.7927 31.6442 13.068 31.9616 13.264C32.2882 13.46 32.6616 13.558 33.0816 13.558C33.5016 13.558 33.8562 13.4693 34.1456 13.292C34.4442 13.1147 34.6776 12.8767 34.8456 12.578L36.3296 13.306C36.1802 13.67 35.9469 13.992 35.6296 14.272C35.3122 14.552 34.9342 14.7713 34.4956 14.93C34.0662 15.0887 33.5902 15.168 33.0676 15.168ZM40.3105 15.168C39.7785 15.168 39.3165 15.0793 38.9245 14.902C38.5325 14.7247 38.2292 14.4727 38.0145 14.146C37.7998 13.81 37.6925 13.4227 37.6925 12.984C37.6925 12.564 37.7858 12.1907 37.9725 11.864C38.1592 11.528 38.4485 11.248 38.8405 11.024C39.2325 10.8 39.7272 10.6413 40.3245 10.548L42.8165 10.142V11.542L40.6745 11.906C40.3105 11.9713 40.0398 12.088 39.8625 12.256C39.6852 12.424 39.5965 12.6433 39.5965 12.914C39.5965 13.1753 39.6945 13.3853 39.8905 13.544C40.0958 13.6933 40.3478 13.768 40.6465 13.768C41.0292 13.768 41.3652 13.6887 41.6545 13.53C41.9532 13.362 42.1818 13.1333 42.3405 12.844C42.5085 12.5547 42.5925 12.2373 42.5925 11.892V9.932C42.5925 9.60533 42.4618 9.33467 42.2005 9.12C41.9485 8.896 41.6125 8.784 41.1925 8.784C40.8005 8.784 40.4505 8.89133 40.1425 9.106C39.8438 9.31133 39.6245 9.58667 39.4845 9.932L37.9865 9.204C38.1358 8.80267 38.3692 8.45733 38.6865 8.168C39.0132 7.86933 39.3958 7.636 39.8345 7.468C40.2732 7.3 40.7492 7.216 41.2625 7.216C41.8878 7.216 42.4385 7.33267 42.9145 7.566C43.3905 7.79 43.7592 8.10733 44.0205 8.518C44.2912 8.91933 44.4265 9.39067 44.4265 9.932V15H42.6905V13.698L43.0825 13.67C42.8865 13.9967 42.6532 14.272 42.3825 14.496C42.1118 14.7107 41.8038 14.8787 41.4585 15C41.1132 15.112 40.7305 15.168 40.3105 15.168ZM49.6636 15.168C48.9262 15.168 48.2682 14.9953 47.6896 14.65C47.1109 14.2953 46.6536 13.8147 46.3176 13.208C45.9816 12.6013 45.8136 11.9293 45.8136 11.192C45.8136 10.4453 45.9816 9.77333 46.3176 9.176C46.6536 8.57867 47.1109 8.10267 47.6896 7.748C48.2776 7.39333 48.9309 7.216 49.6496 7.216C50.2282 7.216 50.7416 7.33267 51.1896 7.566C51.6469 7.79 52.0062 8.10733 52.2676 8.518L51.9876 8.896V4.402H53.8216V15H52.0856V13.53L52.2816 13.894C52.0202 14.3047 51.6562 14.622 51.1896 14.846C50.7229 15.0607 50.2142 15.168 49.6636 15.168ZM49.8596 13.488C50.2796 13.488 50.6482 13.39 50.9656 13.194C51.2829 12.998 51.5302 12.7273 51.7076 12.382C51.8942 12.0367 51.9876 11.64 51.9876 11.192C51.9876 10.7533 51.8942 10.3613 51.7076 10.016C51.5302 9.66133 51.2829 9.386 50.9656 9.19C50.6482 8.994 50.2796 8.896 49.8596 8.896C49.4489 8.896 49.0802 8.99867 48.7536 9.204C48.4269 9.4 48.1702 9.67067 47.9836 10.016C47.8062 10.352 47.7176 10.744 47.7176 11.192C47.7176 11.64 47.8062 12.0367 47.9836 12.382C48.1702 12.7273 48.4269 12.998 48.7536 13.194C49.0802 13.39 49.4489 13.488 49.8596 13.488ZM59.1398 15.168C58.3558 15.168 57.6698 14.9907 57.0818 14.636C56.4938 14.2813 56.0365 13.8007 55.7098 13.194C55.3832 12.5873 55.2198 11.9153 55.2198 11.178C55.2198 10.4127 55.3832 9.736 55.7098 9.148C56.0458 8.55067 56.4985 8.07933 57.0678 7.734C57.6465 7.38867 58.2905 7.216 58.9998 7.216C59.5972 7.216 60.1198 7.314 60.5678 7.51C61.0252 7.706 61.4125 7.97667 61.7298 8.322C62.0472 8.66733 62.2898 9.064 62.4578 9.512C62.6258 9.95067 62.7098 10.4267 62.7098 10.94C62.7098 11.0707 62.7005 11.206 62.6818 11.346C62.6725 11.486 62.6492 11.6073 62.6118 11.71H56.7318V10.31H61.5758L60.7078 10.968C60.7918 10.5387 60.7685 10.156 60.6378 9.82C60.5165 9.484 60.3112 9.218 60.0218 9.022C59.7418 8.826 59.4012 8.728 58.9998 8.728C58.6172 8.728 58.2765 8.826 57.9778 9.022C57.6792 9.20867 57.4505 9.48867 57.2918 9.862C57.1425 10.226 57.0865 10.6693 57.1238 11.192C57.0865 11.6587 57.1472 12.074 57.3058 12.438C57.4738 12.7927 57.7165 13.068 58.0338 13.264C58.3605 13.46 58.7338 13.558 59.1538 13.558C59.5738 13.558 59.9285 13.4693 60.2178 13.292C60.5165 13.1147 60.7498 12.8767 60.9178 12.578L62.4018 13.306C62.2525 13.67 62.0192 13.992 61.7018 14.272C61.3845 14.552 61.0065 14.7713 60.5678 14.93C60.1385 15.0887 59.6625 15.168 59.1398 15.168ZM64.1001 15V7.384H65.8221V9.078L65.6821 8.826C65.8594 8.25667 66.1348 7.86 66.5081 7.636C66.8908 7.412 67.3481 7.3 67.8801 7.3H68.3281V8.924H67.6701C67.1474 8.924 66.7274 9.08733 66.4101 9.414C66.0928 9.73133 65.9341 10.1793 65.9341 10.758V15H64.1001ZM75.2584 18.052C74.3811 18.052 73.5738 17.9073 72.8364 17.618C72.0991 17.3287 71.4551 16.918 70.9044 16.386C70.3538 15.854 69.9291 15.224 69.6304 14.496C69.3318 13.7587 69.1824 12.9467 69.1824 12.06C69.1824 11.1827 69.3318 10.38 69.6304 9.652C69.9291 8.91467 70.3538 8.28467 70.9044 7.762C71.4551 7.23 72.0991 6.81933 72.8364 6.53C73.5738 6.23133 74.3764 6.082 75.2444 6.082C76.1218 6.082 76.9198 6.23133 77.6384 6.53C78.3571 6.82867 78.9731 7.244 79.4864 7.776C80.0091 8.308 80.4104 8.938 80.6904 9.666C80.9704 10.394 81.1104 11.1873 81.1104 12.046C81.1104 12.6527 81.0031 13.18 80.7884 13.628C80.5831 14.0667 80.2938 14.4073 79.9204 14.65C79.5564 14.8833 79.1271 15 78.6324 15C78.3151 15 77.9978 14.9393 77.6804 14.818C77.3724 14.6873 77.1111 14.4913 76.8964 14.23C76.6911 13.9687 76.5791 13.6233 76.5604 13.194L76.8964 13.894C76.8031 14.1273 76.6491 14.328 76.4344 14.496C76.2198 14.6547 75.9678 14.7807 75.6784 14.874C75.3984 14.958 75.1044 15 74.7964 15C74.2551 15 73.7604 14.874 73.3124 14.622C72.8738 14.3607 72.5191 14.006 72.2484 13.558C71.9871 13.1007 71.8564 12.5873 71.8564 12.018C71.8564 11.458 71.9871 10.9447 72.2484 10.478C72.5098 10.0113 72.8644 9.638 73.3124 9.358C73.7698 9.078 74.2831 8.938 74.8524 8.938C75.3098 8.938 75.7204 9.02667 76.0844 9.204C76.4484 9.372 76.6911 9.60067 76.8124 9.89L76.6724 10.366V9.078H77.9464V12.62C77.9464 12.956 78.0118 13.2127 78.1424 13.39C78.2731 13.5673 78.4504 13.656 78.6744 13.656C78.9824 13.656 79.2111 13.53 79.3604 13.278C79.5098 13.0167 79.5844 12.5873 79.5844 11.99C79.5844 11.346 79.4864 10.7533 79.2904 10.212C79.1038 9.66133 78.8284 9.18533 78.4644 8.784C78.1004 8.37333 77.6478 8.056 77.1064 7.832C76.5744 7.59867 75.9584 7.482 75.2584 7.482C74.5771 7.482 73.9564 7.59867 73.3964 7.832C72.8458 8.056 72.3651 8.37333 71.9544 8.784C71.5531 9.19467 71.2404 9.67533 71.0164 10.226C70.8018 10.7767 70.6944 11.3833 70.6944 12.046C70.6944 12.718 70.8064 13.3387 71.0304 13.908C71.2638 14.468 71.5858 14.9533 71.9964 15.364C72.4071 15.7747 72.8878 16.092 73.4384 16.316C73.9984 16.54 74.6051 16.652 75.2584 16.652C75.6971 16.652 76.1171 16.596 76.5184 16.484C76.9291 16.3813 77.3024 16.2227 77.6384 16.008L78.2824 17.24C77.4051 17.7813 76.3971 18.052 75.2584 18.052ZM74.9504 13.656C75.2678 13.656 75.5478 13.5813 75.7904 13.432C76.0331 13.2827 76.2198 13.082 76.3504 12.83C76.4904 12.5687 76.5604 12.284 76.5604 11.976C76.5604 11.5 76.4111 11.1033 76.1124 10.786C75.8138 10.4687 75.4311 10.3053 74.9644 10.296C74.6564 10.296 74.3764 10.366 74.1244 10.506C73.8724 10.646 73.6718 10.842 73.5224 11.094C73.3824 11.346 73.3124 11.6353 73.3124 11.962C73.3124 12.2793 73.3824 12.5687 73.5224 12.83C73.6718 13.082 73.8678 13.2827 74.1104 13.432C74.3624 13.5813 74.6424 13.656 74.9504 13.656ZM87.407 15.168C86.6604 15.168 85.9697 15.0327 85.335 14.762C84.7004 14.4913 84.145 14.1133 83.669 13.628C83.193 13.1427 82.8197 12.5733 82.549 11.92C82.2877 11.2667 82.157 10.5527 82.157 9.778C82.157 9.00333 82.283 8.28933 82.535 7.636C82.7964 6.97333 83.1604 6.404 83.627 5.928C84.103 5.44267 84.6584 5.06933 85.293 4.808C85.9277 4.53733 86.6184 4.402 87.365 4.402C88.1117 4.402 88.779 4.528 89.367 4.78C89.9644 5.032 90.4684 5.368 90.879 5.788C91.2897 6.19867 91.5837 6.65133 91.761 7.146L90.067 7.958C89.871 7.41667 89.5397 6.978 89.073 6.642C88.6064 6.306 88.037 6.138 87.365 6.138C86.7117 6.138 86.133 6.292 85.629 6.6C85.1344 6.908 84.747 7.33267 84.467 7.874C84.1964 8.41533 84.061 9.05 84.061 9.778C84.061 10.506 84.201 11.1453 84.481 11.696C84.7704 12.2373 85.167 12.662 85.671 12.97C86.175 13.278 86.7537 13.432 87.407 13.432C87.939 13.432 88.429 13.3293 88.877 13.124C89.325 12.9093 89.6844 12.6107 89.955 12.228C90.2257 11.836 90.361 11.374 90.361 10.842V10.044L91.229 10.8H87.365V9.19H92.265V10.24C92.265 11.0427 92.1297 11.752 91.859 12.368C91.5884 12.984 91.2197 13.502 90.753 13.922C90.2957 14.3327 89.7777 14.6453 89.199 14.86C88.6204 15.0653 88.023 15.168 87.407 15.168ZM93.4077 15V13.558L96.2357 10.604C96.7957 10.016 97.225 9.54933 97.5237 9.204C97.8317 8.84933 98.0463 8.546 98.1677 8.294C98.289 8.042 98.3497 7.78533 98.3497 7.524C98.3497 7.08533 98.2097 6.74 97.9297 6.488C97.659 6.236 97.309 6.11 96.8797 6.11C96.4317 6.11 96.0443 6.24067 95.7177 6.502C95.391 6.754 95.153 7.12733 95.0037 7.622L93.3377 7.104C93.4497 6.55333 93.6783 6.07733 94.0237 5.676C94.369 5.26533 94.789 4.95267 95.2837 4.738C95.7877 4.514 96.3197 4.402 96.8797 4.402C97.5517 4.402 98.1397 4.52333 98.6437 4.766C99.157 5.00867 99.5537 5.34933 99.8337 5.788C100.123 6.22667 100.268 6.74 100.268 7.328C100.268 7.70133 100.198 8.07 100.058 8.434C99.9177 8.798 99.7077 9.17133 99.4277 9.554C99.1477 9.92733 98.7837 10.3473 98.3357 10.814L95.8857 13.39H100.408V15H93.4077Z" fill="#0CBBC7"/>
<path d="M108.242 15.168C107.579 15.168 106.977 15.042 106.436 14.79C105.895 14.538 105.437 14.202 105.064 13.782C104.691 13.3527 104.425 12.8813 104.266 12.368L105.274 11.99C105.517 12.6993 105.895 13.2407 106.408 13.614C106.921 13.978 107.533 14.16 108.242 14.16C108.69 14.16 109.082 14.09 109.418 13.95C109.763 13.8007 110.029 13.5953 110.216 13.334C110.403 13.0727 110.496 12.7693 110.496 12.424C110.496 11.9107 110.356 11.514 110.076 11.234C109.796 10.954 109.395 10.7393 108.872 10.59L106.996 10.03C106.259 9.81533 105.689 9.456 105.288 8.952C104.896 8.448 104.7 7.874 104.7 7.23C104.7 6.67933 104.835 6.194 105.106 5.774C105.377 5.34467 105.745 5.00867 106.212 4.766C106.688 4.52333 107.225 4.402 107.822 4.402C108.447 4.402 109.007 4.51867 109.502 4.752C110.006 4.976 110.431 5.27467 110.776 5.648C111.121 6.02133 111.369 6.43667 111.518 6.894L110.538 7.286C110.314 6.67 109.964 6.20333 109.488 5.886C109.021 5.56867 108.471 5.41 107.836 5.41C107.435 5.41 107.08 5.48 106.772 5.62C106.473 5.76 106.24 5.96067 106.072 6.222C105.904 6.48333 105.82 6.79133 105.82 7.146C105.82 7.57533 105.955 7.96267 106.226 8.308C106.497 8.644 106.912 8.896 107.472 9.064L109.124 9.554C109.945 9.79667 110.566 10.1467 110.986 10.604C111.406 11.0613 111.616 11.6353 111.616 12.326C111.616 12.886 111.471 13.3807 111.182 13.81C110.902 14.23 110.505 14.5613 109.992 14.804C109.488 15.0467 108.905 15.168 108.242 15.168ZM116.285 15.168C115.762 15.168 115.286 15.0467 114.857 14.804C114.428 14.552 114.087 14.2067 113.835 13.768C113.592 13.32 113.471 12.8067 113.471 12.228V7.496H114.521V12.102C114.521 12.5033 114.6 12.858 114.759 13.166C114.927 13.4647 115.156 13.698 115.445 13.866C115.744 14.034 116.084 14.118 116.467 14.118C116.85 14.118 117.19 14.034 117.489 13.866C117.788 13.6887 118.021 13.4413 118.189 13.124C118.357 12.7973 118.441 12.41 118.441 11.962V7.496H119.491V15H118.441V13.544L118.679 13.6C118.502 14.0853 118.198 14.468 117.769 14.748C117.34 15.028 116.845 15.168 116.285 15.168ZM121.65 15V7.496H122.7V8.924L122.532 8.714C122.738 8.27533 123.041 7.93467 123.442 7.692C123.853 7.44933 124.301 7.328 124.786 7.328C125.365 7.328 125.888 7.49133 126.354 7.818C126.821 8.14467 127.152 8.56933 127.348 9.092L127.054 9.106C127.241 8.52733 127.563 8.08867 128.02 7.79C128.487 7.482 129 7.328 129.56 7.328C130.064 7.328 130.526 7.44933 130.946 7.692C131.376 7.93467 131.716 8.27067 131.968 8.7C132.23 9.12 132.36 9.596 132.36 10.128V15H131.31V10.534C131.31 10.0767 131.226 9.68933 131.058 9.372C130.9 9.05467 130.68 8.812 130.4 8.644C130.12 8.46667 129.798 8.378 129.434 8.378C129.08 8.378 128.758 8.46667 128.468 8.644C128.179 8.812 127.95 9.05933 127.782 9.386C127.614 9.70333 127.53 10.086 127.53 10.534V15H126.48V10.534C126.48 10.0767 126.396 9.68933 126.228 9.372C126.07 9.05467 125.85 8.812 125.57 8.644C125.29 8.46667 124.968 8.378 124.604 8.378C124.24 8.378 123.914 8.46667 123.624 8.644C123.344 8.812 123.12 9.05933 122.952 9.386C122.784 9.70333 122.7 10.086 122.7 10.534V15H121.65ZM134.365 15V7.496H135.415V8.924L135.247 8.714C135.452 8.27533 135.756 7.93467 136.157 7.692C136.568 7.44933 137.016 7.328 137.501 7.328C138.08 7.328 138.602 7.49133 139.069 7.818C139.536 8.14467 139.867 8.56933 140.063 9.092L139.769 9.106C139.956 8.52733 140.278 8.08867 140.735 7.79C141.202 7.482 141.715 7.328 142.275 7.328C142.779 7.328 143.241 7.44933 143.661 7.692C144.09 7.93467 144.431 8.27067 144.683 8.7C144.944 9.12 145.075 9.596 145.075 10.128V15H144.025V10.534C144.025 10.0767 143.941 9.68933 143.773 9.372C143.614 9.05467 143.395 8.812 143.115 8.644C142.835 8.46667 142.513 8.378 142.149 8.378C141.794 8.378 141.472 8.46667 141.183 8.644C140.894 8.812 140.665 9.05933 140.497 9.386C140.329 9.70333 140.245 10.086 140.245 10.534V15H139.195V10.534C139.195 10.0767 139.111 9.68933 138.943 9.372C138.784 9.05467 138.565 8.812 138.285 8.644C138.005 8.46667 137.683 8.378 137.319 8.378C136.955 8.378 136.628 8.46667 136.339 8.644C136.059 8.812 135.835 9.05933 135.667 9.386C135.499 9.70333 135.415 10.086 135.415 10.534V15H134.365ZM150.496 15.168C149.796 15.168 149.161 15 148.592 14.664C148.032 14.3187 147.589 13.8473 147.262 13.25C146.935 12.6527 146.772 11.976 146.772 11.22C146.772 10.464 146.931 9.79667 147.248 9.218C147.565 8.63 147.995 8.168 148.536 7.832C149.087 7.496 149.703 7.328 150.384 7.328C150.925 7.328 151.406 7.43067 151.826 7.636C152.255 7.832 152.619 8.10267 152.918 8.448C153.217 8.784 153.445 9.16667 153.604 9.596C153.763 10.016 153.842 10.45 153.842 10.898C153.842 10.9913 153.837 11.0987 153.828 11.22C153.819 11.332 153.805 11.4487 153.786 11.57H147.444V10.59H153.184L152.68 11.01C152.764 10.4967 152.703 10.0393 152.498 9.638C152.302 9.22733 152.017 8.90533 151.644 8.672C151.271 8.42933 150.851 8.308 150.384 8.308C149.917 8.308 149.483 8.42933 149.082 8.672C148.69 8.91467 148.382 9.25533 148.158 9.694C147.934 10.1233 147.845 10.6367 147.892 11.234C147.845 11.8313 147.939 12.354 148.172 12.802C148.415 13.2407 148.741 13.5813 149.152 13.824C149.572 14.0667 150.02 14.188 150.496 14.188C151.047 14.188 151.509 14.0573 151.882 13.796C152.255 13.5347 152.559 13.208 152.792 12.816L153.688 13.292C153.539 13.628 153.31 13.9407 153.002 14.23C152.694 14.51 152.325 14.7387 151.896 14.916C151.476 15.084 151.009 15.168 150.496 15.168ZM155.693 15V7.496H156.743V8.728L156.603 8.546C156.781 8.19133 157.047 7.91133 157.401 7.706C157.765 7.50067 158.204 7.398 158.717 7.398H159.193V8.448H158.535C157.994 8.448 157.56 8.616 157.233 8.952C156.907 9.288 156.743 9.764 156.743 10.38V15H155.693Z" fill="black"/>
<path fill-rule="evenodd" clip-rule="evenodd" d="M9.85122 7L9.3032 7.59616C7.79232 9.22689 6.18105 11.0789 4.67119 12.7332L2.58566 10.8822L1.98438 10.3496L1 11.6402L1.59616 12.1729L4.23483 14.5145L4.78284 15L5.27759 14.4622C6.9493 12.6574 8.76031 10.5462 10.3992 8.77618L10.9472 8.18003L9.85122 7Z" fill="#0CBBC7" stroke="#016359" stroke-width="0.2"/>
</svg>
